<?xml version="1.0" encoding="iso-8859-1"?>
<svg width="350px" height="337px" viewBox="0 0 350 337" version="1.1" xmlns="http://www.w3.org/2000/svg" xmlns:xlink="http://www.w3.org/1999/xlink">
	<defs></defs>
	<g id="Page-1" stroke="none" stroke-width="1" fill="none" fill-rule="evenodd">
		<g id="empty" fill="#000000" fill-rule="nonzero">
			<path d="M26.0020986,0 L9.181532,0 C4.11332634,0 0,4.11332634 0,9.181532 L0,327.266527 C0,332.3351 4.11332634,336.448059 9.181532,336.448059 L26.0020986,336.448059 C31.0703043,336.448059 35.1836306,332.3351 35.1836306,327.266527 L35.1836306,9.181532 C35.1836306,4.11332634 31.0703043,0 26.0020986,0 Z" id="Shape"></path>
			<path d="M78.3368311,276.878279 C83.4050367,276.878279 87.5183631,272.764953 87.5183631,267.696747 L87.5183631,9.181532 C87.5183631,4.11332634 83.4050367,0 78.3368311,0 L61.5162644,0 C56.4480588,0 52.3347324,4.11332634 52.3347324,9.181532 L52.3347324,267.696747 C52.3347324,272.764953 56.4480588,276.878279 61.5162644,276.878279 L78.3368311,276.878279 Z" id="Shape"></path>
			<path d="M130.70829,276.878279 C135.776495,276.878279 139.889822,272.764953 139.889822,267.696747 L139.889822,9.181532 C139.889822,4.11332634 135.776495,0 130.70829,0 L113.887723,0 C108.819517,0 104.706191,4.11332634 104.706191,9.181532 L104.706191,267.696747 C104.706191,272.764953 108.819517,276.878279 113.887723,276.878279 L130.70829,276.878279 Z" id="Shape"></path>
			<path d="M183.079748,276.878279 C188.148321,276.878279 192.26128,272.764953 192.26128,267.696747 L192.26128,9.181532 C192.26128,4.11332634 188.148321,0 183.079748,0 L166.259182,0 C161.190976,0 157.07765,4.11332634 157.07765,9.181532 L157.07765,267.696747 C157.07765,272.764953 161.190976,276.878279 166.259182,276.878279 L183.079748,276.878279 Z" id="Shape"></path>
			<path d="M235.451207,276.878279 C240.51978,276.878279 244.632739,272.764953 244.632739,267.696747 L244.632739,9.181532 C244.632739,4.11332634 240.51978,0 235.451207,0 L218.631007,0 C213.562434,0 209.449475,4.11332634 209.449475,9.181532 L209.449475,267.696747 C209.449475,272.764953 213.562434,276.878279 218.631007,276.878279 L235.451207,276.878279 Z" id="Shape"></path>
			<path d="M296.967471,9.181532 C296.967471,4.11332634 292.854512,0 287.785939,0 L270.96574,0 C265.897167,0 261.784208,4.11332634 261.784208,9.181532 L261.784208,267.696747 C261.784208,272.764953 265.897167,276.878279 270.96574,276.878279 L287.785939,276.878279 C292.854512,276.878279 296.967471,272.764953 296.967471,267.696747 L296.967471,9.181532 Z" id="Shape"></path>
			<path d="M340.524292,0 L323.704092,0 C318.635519,0 314.52256,4.11332634 314.52256,9.181532 L314.52256,327.266527 C314.52256,332.3351 318.635519,336.448059 323.704092,336.448059 L340.524292,336.448059 C345.592865,336.448059 349.705824,332.3351 349.705824,327.266527 L349.705824,9.181532 C349.705824,4.11332634 345.592865,0 340.524292,0 Z" id="Shape"></path>
			<path d="M56.9989507,329.32319 C60.1941238,333.987408 64.8950682,336.484785 70.6610703,336.484785 C76.3903463,336.484785 81.0545645,334.024134 84.2497377,329.32319 C87.3347324,324.76915 88.8772298,318.378804 88.8772298,310.299056 C88.8772298,286.940871 76.1332634,284.407135 70.6610703,284.407135 C65.1521511,284.407135 52.3714586,286.940871 52.3714586,310.299056 C52.3714586,318.378804 53.9139559,324.768783 56.9989507,329.32319 Z M70.6610703,292.743599 C74.296957,292.743599 78.6673662,295.792235 78.6673662,310.299056 C78.6673662,325.797114 73.6358867,328.147954 70.6610703,328.147954 C63.6096537,328.147954 62.5813221,316.983211 62.5813221,310.299056 C62.5813221,295.792235 66.9517314,292.743599 70.6610703,292.743599 Z" id="Shape"></path>
			<path d="M136.253935,329.32319 C139.338562,324.76915 140.881427,318.378804 140.881427,310.299056 C140.881427,286.940871 128.137461,284.407135 122.665268,284.407135 C117.156348,284.407135 104.375289,286.940871 104.375289,310.299056 C104.375289,318.378804 105.954879,324.805876 109.003148,329.32319 C112.198321,333.987408 116.899265,336.484785 122.665268,336.484785 C128.394544,336.447692 133.095488,333.987408 136.253935,329.32319 Z M114.585519,310.299056 C114.585519,295.792235 118.992655,292.743599 122.665268,292.743599 C126.300787,292.743599 130.671563,295.792235 130.671563,310.299056 C130.671563,325.797114 125.640084,328.147954 122.665268,328.147954 C115.650577,328.111228 114.585519,316.946485 114.585519,310.299056 Z" id="Shape"></path>
			<path d="M161.080797,329.32319 C164.275971,333.987408 168.976915,336.484785 174.742917,336.484785 C180.472193,336.484785 185.136044,334.024134 188.331584,329.32319 C191.415845,324.76915 192.959077,318.378804 192.959077,310.299056 C192.959077,286.940871 180.214743,284.407135 174.742917,284.407135 C169.233998,284.407135 156.453305,286.940871 156.453305,310.299056 C156.416579,318.378804 157.995803,324.768783 161.080797,329.32319 Z M174.706191,292.743599 C178.342078,292.743599 182.712487,295.792235 182.712487,310.299056 C182.712487,325.797114 177.681375,328.147954 174.706191,328.147954 C167.655142,328.147954 166.626443,316.983211 166.626443,310.299056 C166.626443,295.792235 171.033578,292.743599 174.706191,292.743599 Z" id="Shape"></path>
			<path d="M213.084627,329.32319 C216.280168,333.987408 220.980745,336.484785 226.747114,336.484785 C232.47639,336.484785 237.140241,334.024134 240.335782,329.32319 C243.420776,324.76915 244.963274,318.378804 244.963274,310.299056 C244.963274,286.940871 232.219675,284.407135 226.747114,284.407135 C221.238195,284.407135 208.457135,286.940871 208.457135,310.299056 C208.457503,318.378804 210.000367,324.768783 213.084627,329.32319 Z M226.747114,292.743599 C230.383001,292.743599 234.753043,295.792235 234.753043,310.299056 C234.753043,325.797114 229.721931,328.147954 226.747114,328.147954 C219.695331,328.147954 218.667366,316.983211 218.667366,310.299056 C218.667366,295.792235 223.038143,292.743599 226.747114,292.743599 Z" id="Shape"></path>
			<path d="M278.788038,284.407135 C273.279119,284.407135 260.498793,286.940871 260.498793,310.299056 C260.498793,318.378804 262.07765,324.805876 265.126285,329.32319 C268.321091,333.987408 273.022403,336.484785 278.788038,336.484785 C284.517314,336.484785 289.181899,334.024134 292.376705,329.32319 C295.4617,324.76915 297.004197,318.378804 297.004197,310.299056 C296.967471,286.940871 284.260231,284.407135 278.788038,284.407135 Z M278.788038,328.111228 C271.736988,328.111228 270.70829,316.946485 270.70829,310.261962 C270.70829,295.755142 275.115425,292.706873 278.788038,292.706873 C282.423924,292.706873 286.794701,295.755142 286.794701,310.261962 C286.794334,325.797114 281.762487,328.111228 278.788038,328.111228 Z" id="Shape"></path>
		</g>
	</g>
</svg>