<?xml version="1.0" encoding="iso-8859-1"?>

<svg width="351px" height="355px" viewBox="0 0 351 355" version="1.1" xmlns="http://www.w3.org/2000/svg">
    <defs></defs>
    <g id="Page-1" stroke="none" stroke-width="1" fill="none" fill-rule="evenodd">
        <g id="error" fill="#000000" fill-rule="nonzero">
            <path d="M127.605,310.253 C63.166,290.04 16.284,229.77 16.284,158.747 C16.284,145.909 17.835,133.426 20.725,121.462 C23.789,122.055 26.907,122.366 30.042,122.366 C43.79,122.366 56.786,116.579 66.019,106.804 L127.129,142.086 C126.15,145.966 125.62,150.027 125.62,154.208 C125.62,177.553 141.899,197.152 163.695,202.291 L163.695,275.958 C146.371,280.049 132.55,293.271 127.605,310.253 Z M205.06,154.208 C205.06,170.769 191.587,184.241 175.029,184.241 C158.468,184.241 144.996,170.769 144.996,154.208 C144.996,137.648 158.469,124.176 175.029,124.176 C191.588,124.176 205.06,137.648 205.06,154.208 Z M175.043,354.069 C158.484,354.069 145.012,340.596 145.012,324.037 C145.012,307.476 158.485,294.004 175.043,294.004 C191.604,294.004 205.078,307.477 205.078,324.037 C205.078,340.597 191.603,354.069 175.043,354.069 Z M222.479,310.239 C217.532,293.265 203.712,280.047 186.393,275.958 L186.393,202.282 C208.175,197.135 224.435,177.541 224.435,154.208 C224.435,150.033 223.911,145.979 222.928,142.103 L284.072,106.805 C293.302,116.58 306.3,122.367 320.048,122.367 C323.171,122.367 326.286,122.056 329.34,121.467 C332.235,133.428 333.778,145.911 333.778,158.748 C333.778,229.76 286.906,290.018 222.479,310.239 Z M346.018,57.932 C354.296,72.275 349.368,90.679 335.026,98.957 C330.461,101.595 325.279,102.988 320.047,102.988 C309.33,102.988 299.351,97.231 293.998,87.965 C289.989,81.019 288.923,72.925 291,65.176 C293.077,57.426 298.045,50.952 304.993,46.941 C309.558,44.304 314.736,42.91 319.971,42.91 C330.688,42.911 340.669,48.666 346.018,57.932 Z M281.903,41.477 C277.444,46.871 274.148,53.202 272.285,60.165 C269.872,69.171 270.05,78.461 272.686,87.169 L212.418,121.965 C203.349,111.465 189.956,104.799 175.027,104.799 C160.102,104.799 146.715,111.459 137.648,121.951 L77.402,87.168 C80.041,78.46 80.217,69.171 77.804,60.165 C75.939,53.197 72.638,46.862 68.176,41.465 C96.403,15.725 133.908,0 175.028,0 C216.158,-0.001 253.675,15.727 281.903,41.477 Z M4.072,57.932 C9.42,48.668 19.401,42.912 30.118,42.912 C35.348,42.912 40.529,44.305 45.094,46.941 C52.046,50.952 57.011,57.426 59.088,65.176 C61.167,72.925 60.098,81.018 56.091,87.965 C50.738,97.232 40.758,102.988 30.043,102.988 C24.811,102.988 19.628,101.594 15.064,98.957 C8.118,94.947 3.146,88.471 1.07,80.723 C-1.003,72.974 0.059,64.882 4.072,57.932 Z"
                  id="Shape"></path>
        </g>
    </g>
</svg>
