<?xml version="1.0" encoding="UTF-8" ?>
<svg width="170px" height="40px" viewBox="0 0 170 40" version="1.1" xmlns="http://www.w3.org/2000/svg" xmlns:xlink="http://www.w3.org/1999/xlink">
    <desc>Walmart Logo</desc>
    <defs></defs>
    <g id="Page-1" stroke="none" stroke-width="1" fill="none" fill-rule="evenodd">
        <g id="wmt_h_r_4c">
            <path d="M93.2817143,25.4214286 C93.2817143,25.7422857 93.2534286,26.0731429 93.1651429,26.3625714 C92.8014286,27.5671429 91.5537143,28.5851429 89.9937143,28.5851429 C88.6928571,28.5851429 87.6597143,27.8471429 87.6597143,26.2857143 C87.6597143,23.8974286 90.2888571,23.2371429 93.2817143,23.2525714 L93.2817143,25.4214286 Z M97.9771429,21.2602857 C97.9771429,17.32 96.2942857,13.8542857 90.6074286,13.8542857 C87.6874286,13.8542857 85.3697143,14.6745714 84.1048571,15.4048571 L85.0308571,18.5714286 C86.1862857,17.8422857 88.0291429,17.2385714 89.772,17.2385714 C92.6568571,17.2311429 93.13,18.8711429 93.13,19.9228571 L93.13,20.1717143 C86.8402857,20.1622857 82.8662857,22.3388571 82.8662857,26.776 C82.8662857,29.4851429 84.8902857,32.024 88.4094286,32.024 C90.5728571,32.024 92.384,31.1602857 93.4671429,29.7765714 L93.5742857,29.7765714 C93.5742857,29.7765714 94.2925714,32.7814286 98.2522857,31.6322857 C98.044,30.3817143 97.9771429,29.0485714 97.9771429,27.4425714 L97.9771429,21.2602857 Z" id="Fill-1" fill="#0072AD"></path>
            <path d="M0,8.48942857 C0,8.48942857 4.10885714,25.3271429 4.76457143,28.0602857 C5.53,31.2502857 6.90914286,32.424 10.8854286,31.6322857 L13.4514286,21.1922857 C14.1017143,18.5991429 14.538,16.7508571 14.956,14.1131429 L15.0294286,14.1131429 C15.3231429,16.7768571 15.7417143,18.6074286 16.2768571,21.2017143 C16.2768571,21.2017143 17.3211429,25.9405714 17.856,28.4297143 C18.3922857,30.918 19.8845714,32.486 23.7794286,31.6322857 L29.8931429,8.48942857 L24.9571429,8.48942857 L22.8697143,18.4948571 C22.3085714,21.4071429 21.7997143,23.6831429 21.4071429,26.3474286 L21.3371429,26.3474286 C20.98,23.7088571 20.5262857,21.524 19.9557143,18.6865714 L17.7822857,8.48942857 L12.6397143,8.48942857 L10.3151429,18.4297143 C9.65657143,21.4502857 9.04028571,23.8891429 8.64857143,26.4631429 L8.578,26.4631429 C8.17685714,24.0391429 7.64228571,20.974 7.06371429,18.05 C7.06371429,18.05 5.68257143,10.94 5.198,8.48942857 L0,8.48942857" id="Fill-2" fill="#0072AD"></path>
            <path d="M39.226,25.4214286 C39.226,25.7422857 39.1982857,26.0731429 39.1094286,26.3625714 C38.7457143,27.5671429 37.498,28.5851429 35.938,28.5851429 C34.6374286,28.5851429 33.6042857,27.8471429 33.6042857,26.2857143 C33.6042857,23.8974286 36.2331429,23.2371429 39.226,23.2525714 L39.226,25.4214286 Z M43.9205714,21.2602857 C43.9205714,17.32 42.238,13.8542857 36.552,13.8542857 C33.6314286,13.8542857 31.3131429,14.6745714 30.0494286,15.4048571 L30.9742857,18.5714286 C32.1308571,17.8422857 33.972,17.2385714 35.7157143,17.2385714 C38.6025714,17.2311429 39.0748571,18.8711429 39.0748571,19.9228571 L39.0748571,20.1717143 C32.7842857,20.1622857 28.8108571,22.3388571 28.8108571,26.776 C28.8108571,29.4851429 30.8337143,32.024 34.3508571,32.024 C36.516,32.024 38.3265714,31.1602857 39.4117143,29.7765714 L39.518,29.7765714 C39.518,29.7765714 40.2368571,32.7814286 44.196,31.6322857 C43.988,30.3817143 43.9205714,29.0485714 43.9205714,27.4425714 L43.9205714,21.2602857 Z" id="Fill-3" fill="#0072AD"></path>
            <polyline id="Fill-4" fill="#0072AD" points="51.7548571 26.7185714 51.7548571 8.48942857 47.0554286 8.48942857 47.0554286 31.6322857 51.7548571 31.6322857 51.7548571 26.7185714"></polyline>
            <path d="M113.242571,8.48942857 C113.242571,10.7097143 113.242571,25.562 113.242571,25.562 C113.242571,27.9157143 113.685714,29.5648571 114.633429,30.5722857 C115.461429,31.4534286 116.825143,32.024 118.459429,32.024 C119.848857,32.024 121.216,31.7602857 121.860286,31.5202857 L121.799714,27.848 C121.320286,27.966 120.768857,28.0602857 120.014571,28.0602857 C118.413714,28.0602857 117.876857,27.0348571 117.876857,24.9214286 L117.876857,18.39 L121.969714,18.39 L121.969714,13.962 L117.876857,13.962 L117.876857,8.48942857 L113.242571,8.48942857" id="Fill-5" fill="#0072AD"></path>
            <path d="M101.110857,14.2465714 L101.110857,31.6322857 L105.958857,31.6322857 L105.958857,22.73 C105.958857,22.2497143 105.988,21.8308571 106.064,21.4468571 C106.422571,19.582 107.849143,18.39 109.896286,18.39 C110.458286,18.39 110.860286,18.4508571 111.295429,18.5137143 L111.295429,13.962 C110.930571,13.8882857 110.681143,13.8542857 110.227143,13.8542857 C108.418,13.8542857 106.359714,15.0222857 105.495714,17.5257143 L105.364,17.5257143 L105.364,14.2465714 L101.110857,14.2465714" id="Fill-6" fill="#0072AD"></path>
            <path d="M55.0462857,14.2465714 L55.0462857,31.6322857 L59.7705714,31.6322857 L59.7705714,21.4362857 C59.7705714,20.9582857 59.8254286,20.4531429 59.9922857,20.0134286 C60.3837143,18.9868571 61.3385714,17.786 62.8634286,17.786 C64.7697143,17.786 65.6617143,19.3977143 65.6617143,21.7237143 L65.6617143,31.6322857 L70.3811429,31.6322857 L70.3811429,21.3131429 C70.3811429,20.8568571 70.4437143,20.3074286 70.578,19.904 C70.966,18.7362857 71.9954286,17.786 73.4128571,17.786 C75.3454286,17.786 76.2731429,19.3694286 76.2731429,22.1062857 C76.2731429,22.1062857 76.2731429,29.4505714 76.2731429,31.6322857 L80.9957143,31.6322857 L80.9957143,21.3928571 C80.9957143,15.9925714 78.254,13.8542857 75.1585714,13.8542857 C73.7877143,13.8542857 72.7057143,14.198 71.7274286,14.7985714 C70.9051429,15.3031429 70.1688571,16.02 69.5254286,16.964 L69.4557143,16.964 C68.7088571,15.0902857 66.9525714,13.8542857 64.6642857,13.8542857 C61.7234286,13.8542857 60.4022857,15.3445714 59.6008571,16.6088571 L59.5308571,16.6088571 L59.5308571,14.2465714 L55.0462857,14.2465714" id="Fill-7" fill="#0072AD"></path>
            <path d="M147.375714,13.5457143 C148.31,13.5457143 149.079143,13.0608571 149.183143,12.4322857 L150.106571,1.99885714 C150.106571,0.967428571 148.898571,0.120285714 147.378571,0.120285714 C145.861429,0.120285714 144.655143,0.967428571 144.655143,1.99885714 L145.576571,12.4322857 C145.678286,13.0608571 146.448286,13.5457143 147.379143,13.5457143 L147.375714,13.5457143" id="Fill-8" fill="#F3B53C"></path>
            <path d="M141.736286,16.8054286 C142.205143,15.9971429 142.168857,15.088 141.675429,14.6848571 L133.099429,8.67 C132.208571,8.154 130.870857,8.77514286 130.112,10.0908571 C129.350857,11.4048571 129.485714,12.8734286 130.376286,13.3885714 L139.871143,17.81 C140.465714,18.0311429 141.273714,17.6077143 141.739714,16.7997143 L141.736286,16.8054286" id="Fill-9" fill="#F3B53C"></path>
            <path d="M153.019143,16.7997143 C153.486857,17.6077143 154.292286,18.0311429 154.886857,17.81 L164.383143,13.3885714 C165.277429,12.8734286 165.405714,11.4048571 164.649714,10.0908571 C163.887429,8.77514286 162.548286,8.154 161.659143,8.67 L153.082857,14.6848571 C152.592286,15.088 152.556,15.9971429 153.022571,16.8054286 L153.019143,16.7997143" id="Fill-10" fill="#F3B53C"></path>
            <path d="M147.375714,26.578 C148.31,26.578 149.079143,27.0608571 149.183143,27.6885714 L150.106571,38.1214286 C150.106571,39.1545714 148.898571,40 147.378571,40 C145.861429,40 144.655143,39.1545714 144.655143,38.1214286 L145.576571,27.6885714 C145.678286,27.0608571 146.448286,26.578 147.379143,26.578 L147.375714,26.578" id="Fill-11" fill="#F3B53C"></path>
            <path d="M153.019143,23.3197143 C153.486857,22.5102857 154.292286,22.0897143 154.886857,22.3134286 L164.383143,26.7297143 C165.277429,27.2471429 165.405714,28.7162857 164.649714,30.0317143 C163.887429,31.3431429 162.548286,31.9662857 161.659143,31.452 L153.082857,25.442 C152.592286,25.034 152.556,24.1254286 153.022571,23.318 L153.019143,23.3197143" id="Fill-12" fill="#F3B53C"></path>
            <path d="M141.736286,23.318 C142.205143,24.1254286 142.168857,25.034 141.675429,25.442 L133.099429,31.452 C132.208571,31.9662857 130.870857,31.3431429 130.112,30.0317143 C129.350857,28.7162857 129.485714,27.2471429 130.376286,26.7297143 L139.871143,22.3134286 C140.465714,22.0897143 141.273714,22.5102857 141.740286,23.3197143 L141.736286,23.318" id="Fill-13" fill="#F3B53C"></path>
            <path d="M167.446286,30.7531429 L167.642571,30.7531429 C167.856857,30.7531429 168.043714,30.6874286 168.043714,30.5011429 C168.043714,30.3514286 167.951143,30.2482857 167.670571,30.2482857 C167.558857,30.2482857 167.493714,30.2577143 167.446286,30.2671429 L167.446286,30.7531429 Z M167.446286,31.6311429 L167.157143,31.6311429 L167.157143,30.0714286 C167.315429,30.0434286 167.483429,30.0245714 167.698857,30.0245714 C167.960571,30.0245714 168.091143,30.0714286 168.193429,30.1454286 C168.287714,30.2108571 168.351714,30.3325714 168.351714,30.4731429 C168.351714,30.6694286 168.212857,30.7905714 168.043714,30.8465714 L168.043714,30.8654286 C168.184571,30.9211429 168.259143,31.0428571 168.306,31.2394286 C168.351714,31.4814286 168.380857,31.5751429 168.418286,31.6311429 L168.119143,31.6311429 C168.072286,31.5751429 168.035429,31.4351429 167.997429,31.2202857 C167.960571,31.0522857 167.856857,30.9774286 167.633143,30.9774286 L167.446286,30.9774286 L167.446286,31.6311429 Z M167.708286,29.5845714 C167.035429,29.5845714 166.521429,30.136 166.521429,30.8085714 C166.521429,31.5011429 167.035429,32.0417143 167.726857,32.0417143 C168.400286,32.0522857 168.894857,31.5011429 168.894857,30.8185714 C168.894857,30.136 168.400286,29.5845714 167.718,29.5845714 L167.708286,29.5845714 Z M167.726857,29.3234286 C168.567714,29.3234286 169.231429,29.9774286 169.231429,30.8085714 C169.231429,31.6594286 168.567714,32.3134286 167.718,32.3134286 C166.867429,32.3134286 166.194571,31.6594286 166.194571,30.8085714 C166.194571,29.9774286 166.867429,29.3234286 167.718,29.3234286 L167.726857,29.3234286 Z" id="Fill-14" fill="#F3B53C"></path>
        </g>
    </g>
</svg>