<?xml version="1.0" encoding="UTF-8" ?>
<svg width="36px" height="40px" viewBox="0 0 36 40" version="1.1" xmlns="http://www.w3.org/2000/svg" xmlns:xlink="http://www.w3.org/1999/xlink">
    <defs>
        <polygon id="path-1" points="0.0201680672 0.196638655 35.4593971 0.196638655 35.4593971 39.9798319 0.0201680672 39.9798319"></polygon>
    </defs>
    <g id="Page-1" stroke="none" stroke-width="1" fill="none" fill-rule="evenodd">
        <g id="wmt_spark1235-2">
            <g id="Group-8">
                <mask id="mask-2" fill="white">
                    <use xlink:href="#path-1"></use>
                </mask>
                <g id="Clip-2"></g>
                <path d="M17.7257143,13.5959664 C18.6578151,13.5959664 19.4258824,13.1122689 19.5294118,12.485042 L20.4510924,2.07159664 C20.4510924,1.04235294 19.245042,0.196638655 17.7284034,0.196638655 C16.2141176,0.196638655 15.0104202,1.04235294 15.0104202,2.07159664 L15.9297479,12.485042 C16.0315966,13.1122689 16.8,13.5959664 17.7290756,13.5959664 L17.7257143,13.5959664" id="Fill-1" fill="#F3B53D" mask="url(#mask-2)"></path>
                <path d="M12.0971429,16.8494118 C12.5647059,16.0430252 12.5287395,15.1354622 12.0363025,14.7327731 L3.47697479,8.73008403 C2.58823529,8.21478992 1.25277311,8.83462185 0.494789916,10.1478992 C-0.264537815,11.4594958 -0.129411765,12.925042 0.759327731,13.4393277 L10.2356303,17.8521008 C10.8289076,18.0729412 11.6356303,17.650084 12.1005042,16.8440336 L12.0971429,16.8494118" id="Fill-3" fill="#F3B53D" mask="url(#mask-2)"></path>
                <path d="M23.3583193,16.8440336 C23.8245378,17.650084 24.6289076,18.0729412 25.2221849,17.8521008 L34.6998319,13.4393277 C35.592605,12.925042 35.7203361,11.4594958 34.9660504,10.1478992 C34.2053782,8.83462185 32.8685714,8.21478992 31.9811765,8.73008403 L23.4218487,14.7327731 C22.9317647,15.1354622 22.8957983,16.0430252 23.3616807,16.8494118 L23.3583193,16.8440336" id="Fill-4" fill="#F3B53D" mask="url(#mask-2)"></path>
                <path d="M17.7257143,26.6043697 C18.6578151,26.6043697 19.4258824,27.0860504 19.5294118,27.712605 L20.4510924,38.1253782 C20.4510924,39.1563025 19.245042,40 17.7284034,40 C16.2141176,40 15.0104202,39.1563025 15.0104202,38.1253782 L15.9297479,27.712605 C16.0315966,27.0860504 16.8,26.6043697 17.7290756,26.6043697 L17.7257143,26.6043697" id="Fill-5" fill="#F3B53D" mask="url(#mask-2)"></path>
                <path d="M23.3583193,23.3519328 C23.8245378,22.5431933 24.6289076,22.1236975 25.2221849,22.3472269 L34.6998319,26.7559664 C35.592605,27.2722689 35.7203361,28.7384874 34.9660504,30.0510924 C34.2053782,31.36 32.8685714,31.982521 31.9811765,31.4685714 L23.4218487,25.4705882 C22.9317647,25.0635294 22.8957983,24.1563025 23.3616807,23.349916 L23.3583193,23.3519328" id="Fill-6" fill="#F3B53D" mask="url(#mask-2)"></path>
                <path d="M12.0971429,23.349916 C12.5647059,24.1563025 12.5287395,25.0635294 12.0363025,25.4705882 L3.47697479,31.4685714 C2.58823529,31.982521 1.25277311,31.36 0.494789916,30.0510924 C-0.264537815,28.7384874 -0.129411765,27.2722689 0.759327731,26.7559664 L10.2356303,22.3472269 C10.8289076,22.1236975 11.6356303,22.5431933 12.1011765,23.3519328 L12.0971429,23.349916" id="Fill-7" fill="#F3B53D" mask="url(#mask-2)"></path>
            </g>
            <path d="M21.5589916,39.327395 L21.6268908,39.327395 C21.7072269,39.327395 21.7710924,39.3008403 21.7710924,39.2363025 C21.7710924,39.1794958 21.7294118,39.1411765 21.6383193,39.1411765 C21.6006723,39.1411765 21.5741176,39.1448739 21.5589916,39.1489076 L21.5589916,39.327395 Z M21.5552941,39.6763025 L21.4110924,39.6763025 L21.4110924,39.0578151 C21.4678992,39.0463866 21.547563,39.034958 21.6497479,39.034958 C21.767395,39.034958 21.8205042,39.0541176 21.8658824,39.0843697 C21.9001681,39.1112605 21.9270588,39.1603361 21.9270588,39.2171429 C21.9270588,39.2894118 21.8736134,39.342521 21.7979832,39.365042 L21.7979832,39.3727731 C21.8584874,39.3915966 21.892437,39.4410084 21.9115966,39.5243697 C21.9307563,39.6191597 21.9421849,39.657479 21.9573109,39.6763025 L21.8016807,39.6763025 C21.782521,39.6534454 21.7710924,39.6003361 21.7519328,39.5284034 C21.7408403,39.4601681 21.7031933,39.4295798 21.6235294,39.4295798 L21.5552941,39.4295798 L21.5552941,39.6763025 Z M21.6497479,38.8571429 C21.3768067,38.8571429 21.1721008,39.0806723 21.1721008,39.3536134 C21.1721008,39.6305882 21.3768067,39.8507563 21.6571429,39.8507563 C21.9307563,39.8544538 22.1314286,39.6305882 22.1314286,39.3536134 C22.1314286,39.0806723 21.9307563,38.8571429 21.6534454,38.8571429 L21.6497479,38.8571429 Z M21.6571429,38.7317647 C22.0141176,38.7317647 22.2910924,39.0087395 22.2910924,39.3536134 C22.2910924,39.7065546 22.0141176,39.9794958 21.6534454,39.9794958 C21.2971429,39.9794958 21.012437,39.7065546 21.012437,39.3536134 C21.012437,39.0087395 21.2971429,38.7317647 21.6534454,38.7317647 L21.6571429,38.7317647 Z" id="Fill-9" fill="#F3B53D"></path>
        </g>
    </g>
</svg>